<mxfile host="app.diagrams.net" modified="2022-09-27T06:17:17.824Z" agent="5.0 (Macintosh; Intel Mac OS X 10_15_7) AppleWebKit/537.36 (KHTML, like Gecko) Chrome/105.0.0.0 Safari/537.36" etag="NrpjZZtZ3I_qtwNAMzGD" version="20.3.6" type="github">
  <diagram id="mGOCQLTYLM3F7OYnm8TZ" name="第 1 页">
    <mxGraphModel dx="1234" dy="769" grid="1" gridSize="10" guides="1" tooltips="1" connect="1" arrows="1" fold="1" page="1" pageScale="1" pageWidth="3300" pageHeight="4681" math="0" shadow="0">
      <root>
        <mxCell id="0" />
        <mxCell id="1" parent="0" />
        <mxCell id="U5oUNKx9W1d3wKimpbEV-1" value="" style="edgeStyle=none;orthogonalLoop=1;jettySize=auto;html=1;rounded=0;endArrow=none;endFill=0;dashed=1;strokeWidth=3;" edge="1" parent="1">
          <mxGeometry width="80" relative="1" as="geometry">
            <mxPoint x="110" y="400" as="sourcePoint" />
            <mxPoint x="1200" y="400" as="targetPoint" />
            <Array as="points" />
          </mxGeometry>
        </mxCell>
        <mxCell id="U5oUNKx9W1d3wKimpbEV-3" value="" style="edgeStyle=none;orthogonalLoop=1;jettySize=auto;html=1;rounded=0;endArrow=none;endFill=0;dashed=1;strokeWidth=3;" edge="1" parent="1">
          <mxGeometry width="80" relative="1" as="geometry">
            <mxPoint x="110" y="570" as="sourcePoint" />
            <mxPoint x="1200" y="570" as="targetPoint" />
            <Array as="points" />
          </mxGeometry>
        </mxCell>
        <mxCell id="U5oUNKx9W1d3wKimpbEV-4" value="AN" style="text;html=1;resizable=0;autosize=1;align=center;verticalAlign=middle;points=[];fillColor=none;strokeColor=none;rounded=0;" vertex="1" parent="1">
          <mxGeometry x="120" y="185" width="40" height="30" as="geometry" />
        </mxCell>
        <mxCell id="U5oUNKx9W1d3wKimpbEV-5" value="RCMD-ANKOL" style="text;html=1;resizable=0;autosize=1;align=center;verticalAlign=middle;points=[];fillColor=none;strokeColor=none;rounded=0;" vertex="1" parent="1">
          <mxGeometry x="120" y="410" width="100" height="30" as="geometry" />
        </mxCell>
        <mxCell id="U5oUNKx9W1d3wKimpbEV-6" value="RCMD-ANKOL-OFFLINE" style="text;html=1;resizable=0;autosize=1;align=center;verticalAlign=middle;points=[];fillColor=none;strokeColor=none;rounded=0;" vertex="1" parent="1">
          <mxGeometry x="120" y="590" width="160" height="30" as="geometry" />
        </mxCell>
        <mxCell id="U5oUNKx9W1d3wKimpbEV-7" value="A" style="shape=cylinder3;whiteSpace=wrap;html=1;boundedLbl=1;backgroundOutline=1;size=15;" vertex="1" parent="1">
          <mxGeometry x="580" y="650" width="60" height="80" as="geometry" />
        </mxCell>
        <mxCell id="U5oUNKx9W1d3wKimpbEV-8" value="seller/kol&lt;br&gt;hdfs/hive" style="shape=note;whiteSpace=wrap;html=1;backgroundOutline=1;darkOpacity=0.05;" vertex="1" parent="1">
          <mxGeometry x="340" y="250" width="80" height="100" as="geometry" />
        </mxCell>
        <mxCell id="U5oUNKx9W1d3wKimpbEV-9" value="clustering" style="rounded=0;whiteSpace=wrap;html=1;" vertex="1" parent="1">
          <mxGeometry x="330" y="620" width="110" height="30" as="geometry" />
        </mxCell>
        <mxCell id="U5oUNKx9W1d3wKimpbEV-10" value="score" style="rounded=0;whiteSpace=wrap;html=1;" vertex="1" parent="1">
          <mxGeometry x="330" y="670" width="110" height="30" as="geometry" />
        </mxCell>
        <mxCell id="U5oUNKx9W1d3wKimpbEV-11" value="rank list" style="rounded=0;whiteSpace=wrap;html=1;" vertex="1" parent="1">
          <mxGeometry x="330" y="720" width="110" height="30" as="geometry" />
        </mxCell>
        <mxCell id="U5oUNKx9W1d3wKimpbEV-12" value="B" style="shape=cylinder3;whiteSpace=wrap;html=1;boundedLbl=1;backgroundOutline=1;size=15;" vertex="1" parent="1">
          <mxGeometry x="710" y="650" width="60" height="80" as="geometry" />
        </mxCell>
        <mxCell id="U5oUNKx9W1d3wKimpbEV-13" value="FEATURE" style="shape=cylinder3;whiteSpace=wrap;html=1;boundedLbl=1;backgroundOutline=1;size=15;" vertex="1" parent="1">
          <mxGeometry x="840" y="650" width="60" height="80" as="geometry" />
        </mxCell>
        <mxCell id="U5oUNKx9W1d3wKimpbEV-14" value="" style="shape=singleArrow;direction=south;whiteSpace=wrap;html=1;" vertex="1" parent="1">
          <mxGeometry x="355" y="380" width="55" height="210" as="geometry" />
        </mxCell>
        <mxCell id="U5oUNKx9W1d3wKimpbEV-15" value="seller" style="rounded=1;whiteSpace=wrap;html=1;" vertex="1" parent="1">
          <mxGeometry x="680" y="290" width="120" height="50" as="geometry" />
        </mxCell>
        <mxCell id="U5oUNKx9W1d3wKimpbEV-17" value="recall" style="rounded=0;whiteSpace=wrap;html=1;" vertex="1" parent="1">
          <mxGeometry x="520" y="470" width="110" height="30" as="geometry" />
        </mxCell>
        <mxCell id="U5oUNKx9W1d3wKimpbEV-18" value="score" style="rounded=0;whiteSpace=wrap;html=1;" vertex="1" parent="1">
          <mxGeometry x="660" y="470" width="110" height="30" as="geometry" />
        </mxCell>
        <mxCell id="U5oUNKx9W1d3wKimpbEV-19" value="rank/shuffle" style="rounded=0;whiteSpace=wrap;html=1;" vertex="1" parent="1">
          <mxGeometry x="800" y="470" width="110" height="30" as="geometry" />
        </mxCell>
        <mxCell id="U5oUNKx9W1d3wKimpbEV-20" value="" style="shape=singleArrow;whiteSpace=wrap;html=1;" vertex="1" parent="1">
          <mxGeometry x="460" y="655" width="100" height="60" as="geometry" />
        </mxCell>
        <mxCell id="U5oUNKx9W1d3wKimpbEV-21" value="filter" style="rounded=0;whiteSpace=wrap;html=1;" vertex="1" parent="1">
          <mxGeometry x="940" y="470" width="110" height="30" as="geometry" />
        </mxCell>
        <mxCell id="U5oUNKx9W1d3wKimpbEV-22" value="response/cache" style="rounded=0;whiteSpace=wrap;html=1;" vertex="1" parent="1">
          <mxGeometry x="1080" y="470" width="110" height="30" as="geometry" />
        </mxCell>
        <mxCell id="U5oUNKx9W1d3wKimpbEV-23" value="" style="shape=singleArrow;direction=north;whiteSpace=wrap;html=1;" vertex="1" parent="1">
          <mxGeometry x="710" y="530" width="60" height="100" as="geometry" />
        </mxCell>
        <mxCell id="U5oUNKx9W1d3wKimpbEV-24" value="" style="shape=singleArrow;direction=north;whiteSpace=wrap;html=1;" vertex="1" parent="1">
          <mxGeometry x="710" y="350" width="60" height="100" as="geometry" />
        </mxCell>
      </root>
    </mxGraphModel>
  </diagram>
</mxfile>
